<?xml version="1.0" encoding="UTF-8" standalone="no"?> <!-- Created with Vectornator for iOS (http://vectornator.io/) --><!DOCTYPE svg PUBLIC "-//W3C//DTD SVG 1.1//EN" "http://www.w3.org/Graphics/SVG/1.1/DTD/svg11.dtd">
<svg height="100%" style="fill-rule:evenodd;clip-rule:evenodd;stroke-linecap:round;stroke-linejoin:round;" xmlns:xlink="http://www.w3.org/1999/xlink" xmlns="http://www.w3.org/2000/svg" xml:space="preserve" width="100%" xmlns:vectornator="http://vectornator.io" version="1.1" viewBox="0 0 2000 2000">
<metadata>
<vectornator:setting key="DimensionsVisible" value="1"/>
<vectornator:setting key="SnapToGrid" value="0"/>
<vectornator:setting key="SnapToPoints" value="0"/>
<vectornator:setting key="GuidesVisible" value="1"/>
<vectornator:setting key="RulersVisible" value="1"/>
<vectornator:setting key="CMYKEnabledKey" value="0"/>
<vectornator:setting key="SnapToEdges" value="0"/>
<vectornator:setting key="DisplayWhiteBackground" value="0"/>
<vectornator:setting key="SnapToGuides" value="1"/>
<vectornator:setting key="GridSpacing" value="36.00450134277344"/>
<vectornator:setting key="Units" value="Pixels"/>
<vectornator:setting key="DynamicGuides" value="1"/>
<vectornator:setting key="New" value="1"/>
</metadata>
<defs/>
<g id="1" vectornator:layerName="1" visibility="hidden">
<path stroke="#000000" stroke-dasharray="0,0,0,3" stroke-width="10.87" d="M1000.46+1734.5C1000.46+1734.5+1142.32+1642.61+1188.53+1574.5C1278.47+1441.96+1289.63+1360.33+1373.5+1174.47C1376.61+1167.6+1396.66+1130.82+1408.42+1144.14C1420.19+1157.46+1391.95+1234.35+1384.91+1253.52C1343.89+1365.08+1309.46+1449.09+1251.02+1552.59C1223.12+1602+1201.23+1620.39+1134.44+1674.67C1067.66+1728.95+1000.46+1734.5+1000.46+1734.5" fill="#ffffff" stroke-linecap="round" fill-opacity="0.996456" opacity="1" stroke-linejoin="round"/>
<path stroke="#000000" stroke-dasharray="0,0,0,3" stroke-width="6.12" d="M938.014+944.737C952.727+944.737+930.171+1123.81+937.059+1216.74C946.441+1343.28+948.017+1341.74+975.119+1529.41C990.976+1639.22+1000.46+1734.5+1000.46+1734.5C1000.46+1734.5+968.76+1568.42+966.501+1551.07C947.973+1408.87+934.023+1342.87+923.132+1212.45C919.344+1167.08+914.435+1083.39+917.914+1037.62C922.642+975.448+922.099+948.389+938.202+944.737" fill="#ffffff" stroke-linecap="round" fill-opacity="0.996456" opacity="1" stroke-linejoin="round"/>
<path stroke="#000000" stroke-width="11.64" d="M1000.46+1734.5C1000.46+1734.5+844.177+1652.81+734.317+1535.5C659.585+1455.69+617.598+1322.3+584.321+1232.43C506.964+1023.54+559.529+838.301+530.6+838.755C501.67+839.21+470.022+1041.05+554.697+1284.34C602.561+1421.87+707.849+1584.63+779.717+1637.63C897.647+1724.59+1000.46+1734.5+1000.46+1734.5Z" fill="#ffffff" stroke-linecap="round" opacity="1" stroke-linejoin="round" stroke-dasharray="0,0,0,3"/>
</g>
<g id="Gövde" vectornator:layerName="Gövde" visibility="hidden">
<path stroke="#000000" stroke-width="14.3" d="M1220.8+729.952C1168.22+950.292+1051.3+944.238+1003.02+1151.67C960.101+1336.02+981.977+1665.94+1004.13+1728.95" fill="none" stroke-linecap="round" opacity="1" stroke-linejoin="round" stroke-dasharray="0,0,0,3"/>
<path stroke="#000000" stroke-width="16.54" d="M1300.42+317.76C1313.53+319.931+1322.86+354.536+1315.52+398.908C1308.17+443.279+1280.12+440.374+1280.12+440.374C1280.12+440.374+1250.93+431.713+1258.16+388.019C1265.39+344.326+1287.31+315.59+1300.42+317.76Z" fill="#ffffff" stroke-linecap="round" opacity="1" stroke-linejoin="round" stroke-dasharray="0,0,0,3"/>
<path stroke="#000000" stroke-width="16.54" d="M1269.32+503.37C1269.32+503.37+1278.31+413.359+1253.54+353.102C1240.8+322.117+1219.14+298.999+1182.74+300.033C1174.8+300.259+1164.32+325.908+1180.79+394.327C1190.63+435.189+1207.21+460.861+1223.25+476.913C1245.87+499.546+1267.4+503.056+1267.4+503.056" fill="#ffffff" stroke-linecap="round" opacity="1" stroke-linejoin="round" stroke-dasharray="0,0,0,3"/>
<path stroke="#000000" stroke-width="16.54" d="M1269.32+503.37C1269.32+503.37+1315.32+301.126+1416+338.059C1423.45+340.792+1425.25+368.441+1387.9+428.088C1334.15+513.937+1271.25+503.684+1271.25+503.684" fill="#ffffff" stroke-linecap="round" opacity="1" stroke-linejoin="round" stroke-dasharray="0,0,0,3"/>
<path stroke="#000000" stroke-width="16.54" d="M1280.64+411.605C1293.75+413.776+1303.08+448.382+1295.74+492.753C1288.39+537.124+1260.34+534.219+1260.34+534.219C1260.34+534.219+1231.15+525.559+1238.38+481.865C1245.62+438.171+1267.53+409.435+1280.64+411.605Z" fill="#ffffff" stroke-linecap="round" opacity="1" stroke-linejoin="round" stroke-dasharray="0,0,0,3"/>
<path stroke="#000000" stroke-width="16.54" d="M1249.54+597.215C1249.54+597.215+1258.53+507.204+1233.76+446.947C1221.03+415.962+1199.36+392.844+1162.96+393.879C1155.02+394.104+1144.54+419.753+1161.01+488.173C1170.85+529.034+1187.43+554.706+1203.47+570.758C1226.09+593.391+1247.62+596.901+1247.62+596.901" fill="#ffffff" stroke-linecap="round" opacity="1" stroke-linejoin="round" stroke-dasharray="0,0,0,3"/>
<path stroke="#000000" stroke-width="16.54" d="M1249.54+597.215C1249.54+597.215+1295.54+394.971+1396.22+431.904C1403.68+434.638+1405.47+462.287+1368.12+521.933C1314.37+607.782+1251.47+597.529+1251.47+597.529" fill="#ffffff" stroke-linecap="round" opacity="1" stroke-linejoin="round" stroke-dasharray="0,0,0,3"/>
<path stroke="#000000" stroke-width="13.59" d="M766.361+838.755C766.361+838.755+719.414+913.069+744.635+1025.55C769.363+1135.84+854.692+1296+885.114+1370.6C946.566+1521.29+971.885+1601.74+971.885+1601.74L991.439+1655.51" fill="none" stroke-linecap="round" opacity="1" stroke-linejoin="round" stroke-dasharray="0,0,0,3"/>
<path stroke="#000000" stroke-width="26.08" d="M1085.35+851.181L1086.63+851.324" fill="none" stroke-linecap="round" opacity="1" stroke-linejoin="round" stroke-dasharray="0,0,0,3"/>
<path stroke="#000000" stroke-width="16.54" d="M1265.13+495.855C1278.24+498.025+1287.58+532.631+1280.23+577.002C1272.89+621.374+1244.83+618.469+1244.83+618.469C1244.83+618.469+1215.64+609.808+1222.88+566.114C1230.11+522.42+1252.02+493.684+1265.13+495.855Z" fill="#ffffff" stroke-linecap="round" opacity="1" stroke-linejoin="round" stroke-dasharray="0,0,0,3"/>
<path stroke="#000000" stroke-width="16.54" d="M1234.04+681.464C1234.04+681.464+1243.03+591.453+1218.26+531.196C1205.52+500.211+1183.86+477.094+1147.45+478.128C1139.52+478.353+1129.04+504.002+1145.51+572.422C1155.34+613.283+1171.93+638.955+1187.97+655.007C1210.58+677.641+1232.11+681.15+1232.11+681.15" fill="#ffffff" stroke-linecap="round" opacity="1" stroke-linejoin="round" stroke-dasharray="0,0,0,3"/>
<path stroke="#000000" stroke-width="16.54" d="M1234.04+681.464C1234.04+681.464+1280.03+479.221+1380.72+516.153C1388.17+518.887+1389.96+546.536+1352.61+606.183C1298.86+692.031+1235.96+681.778+1235.96+681.778" fill="#ffffff" stroke-linecap="round" opacity="1" stroke-linejoin="round" stroke-dasharray="0,0,0,3"/>
<path stroke="#000000" stroke-width="16.54" d="M1245.35+589.7C1258.46+591.87+1267.8+626.476+1260.45+670.847C1253.11+715.219+1225.05+712.314+1225.05+712.314C1225.05+712.314+1195.86+703.653+1203.1+659.959C1210.33+616.265+1232.24+587.529+1245.35+589.7Z" fill="#ffffff" stroke-linecap="round" opacity="1" stroke-linejoin="round" stroke-dasharray="0,0,0,3"/>
<path stroke="#000000" stroke-width="16.54" d="M1214.26+775.309C1214.26+775.309+1223.25+685.298+1198.48+625.042C1185.74+594.057+1164.08+570.939+1127.67+571.973C1119.74+572.199+1109.26+597.847+1125.73+666.267C1135.57+707.129+1152.15+732.8+1168.19+748.853C1190.8+771.486+1212.33+774.996+1212.33+774.996" fill="#ffffff" stroke-linecap="round" opacity="1" stroke-linejoin="round" stroke-dasharray="0,0,0,3"/>
<path stroke="#000000" stroke-width="16.49" d="M1114.92+964.211C1114.92+964.211+1143.14+878.265+1131.96+814.081C1126.22+781.076+1110.06+753.826+1074.29+746.975C1066.49+745.481+1050.72+768.262+1052.03+838.624C1052.81+880.646+1063.46+909.293+1075.65+928.43C1092.85+955.413+1113.11+963.489+1113.11+963.489" fill="#ffffff" stroke-linecap="round" opacity="1" stroke-linejoin="round" stroke-dasharray="0,0,0,3"/>
<path stroke="#000000" stroke-width="16.54" d="M744.144+1041.08C731.781+1045.95+729.913+1081.74+746.406+1123.59C762.899+1165.43+789.72+1156.7+789.72+1156.7C789.72+1156.7+816.443+1142.11+800.201+1100.9C783.96+1059.7+756.506+1036.2+744.144+1041.08Z" fill="#ffffff" stroke-linecap="round" opacity="1" stroke-linejoin="round" stroke-dasharray="0,0,0,3"/>
<path stroke="#000000" stroke-width="16.54" d="M1214.26+775.309C1214.26+775.309+1260.26+573.066+1360.94+609.998C1368.39+612.732+1370.18+640.381+1332.84+700.028C1279.08+785.877+1216.18+775.623+1216.18+775.623" fill="#ffffff" stroke-linecap="round" opacity="1" stroke-linejoin="round" stroke-dasharray="0,0,0,3"/>
<path stroke="#000000" stroke-width="16.49" d="M1119.49+964.586C1119.49+964.586+1253.91+806.626+1326.04+885.98C1331.38+891.854+1320.17+917.189+1259.45+952.765C1172.06+1003.97+1121.05+965.756+1121.05+965.756" fill="#ffffff" stroke-linecap="round" opacity="1" stroke-linejoin="round" stroke-dasharray="0,0,0,3"/>
<path stroke="#000000" stroke-width="16.54" d="M813.492+1216.03C813.492+1216.03+785.815+1129.91+797.39+1065.8C803.343+1032.83+819.674+1005.68+855.485+999.051C863.291+997.607+878.918+1020.49+877.171+1090.84C876.127+1132.85+865.298+1161.43+852.984+1180.49C835.622+1207.37+815.308+1215.32+815.308+1215.32" fill="#ffffff" stroke-linecap="round" opacity="1" stroke-linejoin="round" stroke-dasharray="0,0,0,3"/>
<path stroke="#000000" stroke-width="16.54" d="M813.492+1216.03C813.492+1216.03+726.082+1027.94+635.39+1085.18C628.677+1089.41+632.727+1116.82+681.759+1167.3C752.328+1239.96+811.675+1216.74+811.675+1216.74" fill="#ffffff" stroke-linecap="round" opacity="1" stroke-linejoin="round" stroke-dasharray="0,0,0,3"/>
<path stroke="#000000" stroke-width="16.54" d="M776.051+1108.04C763.688+1112.91+761.82+1148.71+778.313+1190.55C794.806+1232.39+821.627+1223.67+821.627+1223.67C821.627+1223.67+848.35+1209.07+832.108+1167.87C815.867+1126.67+788.413+1103.17+776.051+1108.04Z" fill="#ffffff" stroke-linecap="round" opacity="1" stroke-linejoin="round" stroke-dasharray="0,0,0,3"/>
<path stroke="#000000" stroke-width="16.54" d="M776.051+1108.04C763.688+1112.91+761.82+1148.71+778.313+1190.55C794.806+1232.39+821.627+1223.67+821.627+1223.67C821.627+1223.67+848.35+1209.07+832.108+1167.87C815.867+1126.67+788.413+1103.17+776.051+1108.04Z" fill="#ffffff" stroke-linecap="round" opacity="1" stroke-linejoin="round" stroke-dasharray="0,0,0,3"/>
<path stroke="#000000" stroke-width="16.54" d="M1200.96+1108.04C1213.32+1112.91+1215.19+1148.71+1198.7+1190.55C1182.21+1232.39+1155.39+1223.67+1155.39+1223.67C1155.39+1223.67+1128.66+1209.07+1144.9+1167.87C1161.14+1126.67+1188.6+1103.17+1200.96+1108.04Z" fill="#ffffff" stroke-linecap="round" opacity="1" stroke-linejoin="round" stroke-dasharray="0,0,0,3"/>
<path stroke="#000000" stroke-width="16.54" d="M880.177+571.953C892.54+576.826+894.408+612.621+877.915+654.463C861.422+696.305+834.601+687.578+834.601+687.578C834.601+687.578+807.878+672.985+824.12+631.782C840.361+590.579+867.815+567.08+880.177+571.953Z" fill="#ffffff" stroke-linecap="round" opacity="1" stroke-linejoin="round" stroke-dasharray="0,0,0,3"/>
<path stroke="#000000" stroke-width="16.54" d="M845.399+1282.99C845.399+1282.99+817.722+1196.87+829.298+1132.76C835.25+1099.79+851.582+1072.64+887.392+1066.02C895.198+1064.57+910.825+1087.45+909.078+1157.8C908.034+1199.82+897.205+1228.4+884.892+1247.46C867.53+1274.34+847.216+1282.28+847.216+1282.28" fill="#ffffff" stroke-linecap="round" opacity="1" stroke-linejoin="round" stroke-dasharray="0,0,0,3"/>
<path stroke="#000000" stroke-width="16.54" d="M845.399+1282.99C845.399+1282.99+817.722+1196.87+829.298+1132.76C835.25+1099.79+851.582+1072.64+887.392+1066.02C895.198+1064.57+910.825+1087.45+909.078+1157.8C908.034+1199.82+897.205+1228.4+884.892+1247.46C867.53+1274.34+847.216+1282.28+847.216+1282.28" fill="#ffffff" stroke-linecap="round" opacity="1" stroke-linejoin="round" stroke-dasharray="0,0,0,3"/>
<path stroke="#000000" stroke-width="16.54" d="M1131.61+1282.99C1131.61+1282.99+1159.29+1196.87+1147.71+1132.76C1141.76+1099.79+1125.43+1072.64+1089.62+1066.02C1081.81+1064.57+1066.19+1087.45+1067.93+1157.8C1068.98+1199.82+1079.81+1228.4+1092.12+1247.46C1109.48+1274.34+1129.8+1282.28+1129.8+1282.28" fill="#ffffff" stroke-linecap="round" opacity="1" stroke-linejoin="round" stroke-dasharray="0,0,0,3"/>
<path stroke="#000000" stroke-width="16.54" d="M810.829+746.906C810.829+746.906+838.506+660.786+826.93+596.673C820.978+563.705+804.646+536.556+768.836+529.928C761.03+528.484+745.403+551.363+747.15+621.716C748.194+663.731+759.023+692.312+771.336+711.372C788.698+738.246+809.012+746.195+809.012+746.195" fill="#ffffff" stroke-linecap="round" opacity="1" stroke-linejoin="round" stroke-dasharray="0,0,0,3"/>
<path stroke="#000000" stroke-width="16.54" d="M845.399+1282.99C845.399+1282.99+757.989+1094.91+667.297+1152.14C660.584+1156.38+664.635+1183.79+713.666+1234.27C784.235+1306.93+843.582+1283.71+843.582+1283.71" fill="#ffffff" stroke-linecap="round" opacity="1" stroke-linejoin="round" stroke-dasharray="0,0,0,3"/>
<path stroke="#000000" stroke-width="16.54" d="M845.399+1282.99C845.399+1282.99+757.989+1094.91+667.297+1152.14C660.584+1156.38+664.635+1183.79+713.666+1234.27C784.235+1306.93+843.582+1283.71+843.582+1283.71" fill="#ffffff" stroke-linecap="round" opacity="1" stroke-linejoin="round" stroke-dasharray="0,0,0,3"/>
<path stroke="#000000" stroke-width="16.54" d="M1131.61+1282.99C1131.61+1282.99+1219.02+1094.91+1309.72+1152.14C1316.43+1156.38+1312.38+1183.79+1263.35+1234.27C1192.78+1306.93+1133.43+1283.71+1133.43+1283.71" fill="#ffffff" stroke-linecap="round" opacity="1" stroke-linejoin="round" stroke-dasharray="0,0,0,3"/>
<path stroke="#000000" stroke-width="16.54" d="M810.829+746.906C810.829+746.906+898.239+558.817+988.931+616.053C995.644+620.289+991.593+647.699+942.562+698.181C871.993+770.84+812.646+747.617+812.646+747.617" fill="#ffffff" stroke-linecap="round" opacity="1" stroke-linejoin="round" stroke-dasharray="0,0,0,3"/>
<path stroke="#000000" stroke-width="16.54" d="M815.08+1195.65C802.718+1200.52+800.85+1236.32+817.343+1278.16C833.836+1320+860.657+1311.27+860.657+1311.27C860.657+1311.27+887.379+1296.68+871.138+1255.48C854.897+1214.27+827.443+1190.77+815.08+1195.65Z" fill="#ffffff" stroke-linecap="round" opacity="1" stroke-linejoin="round" stroke-dasharray="0,0,0,3"/>
<path stroke="#000000" stroke-width="16.54" d="M1161.93+1195.65C1174.29+1200.52+1176.16+1236.32+1159.67+1278.16C1143.18+1320+1116.36+1311.27+1116.36+1311.27C1116.36+1311.27+1089.63+1296.68+1105.87+1255.48C1122.12+1214.27+1149.57+1190.77+1161.93+1195.65Z" fill="#ffffff" stroke-linecap="round" opacity="1" stroke-linejoin="round" stroke-dasharray="0,0,0,3"/>
<path stroke="#000000" stroke-width="16.54" d="M841.148+659.559C853.51+664.432+855.378+700.227+838.885+742.069C822.392+783.911+795.571+775.184+795.571+775.184C795.571+775.184+768.849+760.591+785.09+719.388C801.331+678.185+828.785+654.686+841.148+659.559Z" fill="#ffffff" stroke-linecap="round" opacity="1" stroke-linejoin="round" stroke-dasharray="0,0,0,3"/>
<path stroke="#000000" stroke-width="16.54" d="M884.428+1370.6C884.428+1370.6+856.752+1284.48+868.327+1220.37C874.28+1187.4+890.611+1160.25+926.422+1153.62C934.228+1152.18+949.855+1175.06+948.107+1245.41C947.064+1287.43+936.235+1316.01+923.921+1335.07C906.559+1361.94+886.245+1369.89+886.245+1369.89" fill="#ffffff" stroke-linecap="round" opacity="1" stroke-linejoin="round" stroke-dasharray="0,0,0,3"/>
<path stroke="#000000" stroke-width="16.54" d="M1092.58+1370.6C1092.58+1370.6+1120.26+1284.48+1108.68+1220.37C1102.73+1187.4+1086.4+1160.25+1050.59+1153.62C1042.78+1152.18+1027.16+1175.06+1028.9+1245.41C1029.95+1287.43+1040.78+1316.01+1053.09+1335.07C1070.45+1361.94+1090.77+1369.89+1090.77+1369.89" fill="#ffffff" stroke-linecap="round" opacity="1" stroke-linejoin="round" stroke-dasharray="0,0,0,3"/>
<path stroke="#000000" stroke-width="16.54" d="M771.8+834.512C771.8+834.512+799.476+748.392+787.901+684.278C781.948+651.311+765.617+624.162+729.806+617.534C722+616.09+706.373+638.969+708.121+709.322C709.164+751.337+719.993+779.917+732.307+798.978C749.669+825.852+769.983+833.801+769.983+833.801" fill="#ffffff" stroke-linecap="round" opacity="1" stroke-linejoin="round" stroke-dasharray="0,0,0,3"/>
<path stroke="#000000" stroke-width="16.54" d="M884.428+1370.6C884.428+1370.6+797.019+1182.51+706.327+1239.75C699.614+1243.98+703.664+1271.39+752.695+1321.88C823.265+1394.53+882.612+1371.31+882.612+1371.31" fill="#ffffff" stroke-linecap="round" opacity="1" stroke-linejoin="round" stroke-dasharray="0,0,0,3"/>
<path stroke="#000000" stroke-width="16.54" d="M1092.58+1370.6C1092.58+1370.6+1179.99+1182.51+1270.69+1239.75C1277.4+1243.98+1273.35+1271.39+1224.32+1321.88C1153.75+1394.53+1094.4+1371.31+1094.4+1371.31" fill="#ffffff" stroke-linecap="round" opacity="1" stroke-linejoin="round" stroke-dasharray="0,0,0,3"/>
<path stroke="#000000" stroke-width="16.54" d="M771.8+834.512C771.8+834.512+859.209+646.422+949.901+703.659C956.614+707.895+952.564+735.305+903.533+785.787C832.963+858.446+773.616+835.223+773.616+835.223" fill="#ffffff" stroke-linecap="round" opacity="1" stroke-linejoin="round" stroke-dasharray="0,0,0,3"/>
<path stroke="#000000" stroke-width="16.49" d="M972.878+1603.35C972.878+1603.35+888.258+1413.99+796.73+1469.88C789.955+1474.01+793.6+1501.48+841.88+1552.68C911.368+1626.38+971.051+1604.03+971.051+1604.03" fill="#ffffff" stroke-linecap="round" opacity="1" stroke-linejoin="round" stroke-dasharray="0,0,0,3"/>
<path stroke="#000000" stroke-width="16.49" d="M998.358+1631.34C998.358+1631.34+1082.98+1441.98+1174.51+1497.87C1181.28+1502.01+1177.64+1529.47+1129.36+1580.68C1095.72+1616.35+1064.38+1629.52+1040.99+1633.61C1016.07+1637.97+1000.19+1632.03+1000.19+1632.03" fill="#ffffff" stroke-linecap="round" opacity="1" stroke-linejoin="round" stroke-dasharray="0,0,0,3"/>
<path stroke="#000000" stroke-width="11.63" d="M885.114+1369.54L914.184+1443.48C914.184+1443.48+956.125+1553.77+971.885+1601.74C1001.64+1692.3+996.071+1699.28+1004.13+1731.79" fill="none" stroke-linecap="round" opacity="1" stroke-linejoin="round" stroke-dasharray="0,0,0,3"/>
<path stroke="#000000" stroke-width="13.59" d="M1091.9+1369.54C1091.9+1369.54+991.439+1510.28+991.439+1607.22C991.439+1704.16+1004.13+1731.79+1004.13+1731.79" fill="none" stroke-linecap="round" opacity="1" stroke-linejoin="round" stroke-dasharray="0,0,0,3"/>
<path stroke="#000000" stroke-width="16.54" d="M1131.44+1254.22C1143.8+1259.09+1145.67+1294.89+1129.17+1336.73C1112.68+1378.57+1085.86+1369.84+1085.86+1369.84C1085.86+1369.84+1059.14+1355.25+1075.38+1314.05C1091.62+1272.85+1119.07+1249.35+1131.44+1254.22Z" fill="#ffffff" stroke-linecap="round" opacity="1" stroke-linejoin="round" stroke-dasharray="0,0,0,3"/>
<path stroke="#000000" stroke-width="16.49" d="M972.879+1603.35C972.879+1603.35+946.477+1516.83+958.999+1452.89C965.438+1420.02+982.169+1393.11+1018.07+1387.01C1025.9+1385.68+1041.19+1408.79+1038.4+1479.11C1036.74+1521.11+1025.49+1549.52+1012.89+1568.4C995.135+1595.01+974.706+1602.66+974.706+1602.66" fill="#ffffff" stroke-linecap="round" opacity="1" stroke-linejoin="round" stroke-dasharray="0,0,0,3"/>
<path stroke="#000000" stroke-width="16.54" d="M810.652+718.131C823.015+723.004+824.883+758.799+808.39+800.641C791.897+842.483+765.076+833.756+765.076+833.756C765.076+833.756+738.353+819.163+754.595+777.96C770.836+736.757+798.29+713.258+810.652+718.131Z" fill="#ffffff" stroke-linecap="round" opacity="1" stroke-linejoin="round" stroke-dasharray="0,0,0,3"/>
</g>
<g id="G+Y" vectornator:layerName="G+Y">
<path stroke="#796177" stroke-dasharray="0,0,0,3" stroke-width="11" d="M1020.46+1751.7C1020.46+1751.7+1162.32+1659.82+1208.53+1591.71C1298.47+1459.16+1309.63+1377.53+1393.5+1191.68C1396.61+1184.81+1416.66+1148.03+1428.42+1161.35C1440.19+1174.66+1411.95+1251.56+1404.91+1270.73C1363.89+1382.28+1329.46+1466.3+1271.02+1569.79C1243.12+1619.2+1221.23+1637.6+1154.44+1691.88C1087.66+1746.15+1020.46+1751.7+1020.46+1751.7" fill="#ffffff" stroke-linecap="round" fill-opacity="0.996456" opacity="1" stroke-linejoin="round"/>
<path stroke="#796177" stroke-dasharray="0,0,0,3" stroke-width="11" d="M958.014+961.944C972.727+961.944+950.171+1141.02+957.059+1233.94C966.441+1360.48+968.017+1358.95+995.119+1546.62C1010.98+1656.43+1020.46+1751.7+1020.46+1751.7C1020.46+1751.7+988.76+1585.62+986.501+1568.28C967.973+1426.08+954.023+1360.08+943.132+1229.65C939.344+1184.29+934.435+1100.59+937.914+1054.83C942.642+992.654+942.099+965.595+958.202+961.944" fill="#ffffff" stroke-linecap="round" fill-opacity="0.996456" opacity="1" stroke-linejoin="round"/>
<path stroke="#796177" stroke-width="11" d="M1020.46+1751.7C1020.46+1751.7+864.177+1670.01+754.317+1552.7C679.585+1472.9+637.598+1339.5+604.321+1249.64C526.964+1040.74+579.529+855.507+550.6+855.962C521.67+856.417+490.022+1058.26+574.697+1301.55C622.561+1439.07+727.849+1601.83+799.717+1654.83C917.647+1741.8+1020.46+1751.7+1020.46+1751.7Z" fill="#ffffff" stroke-linecap="round" opacity="1" stroke-linejoin="round" stroke-dasharray="0,0,0,3"/>
<path stroke="#796177" stroke-width="14" d="M1181.37+793.211C1181.37+793.211+1172.02+857.464+1156.13+898.512C1099.89+1043.76+1048.77+1043.54+1023.02+1168.88C984.918+1354.29+1001.98+1683.15+1024.13+1746.15" fill="none" stroke-linecap="round" opacity="1" stroke-linejoin="round" stroke-dasharray="0,0,0,3"/>
<path stroke="#796177" stroke-width="14" d="M1194.98+330.664C1208.27+330.786+1222.83+363.538+1222.42+408.511C1222.01+453.485+1193.84+454.942+1193.84+454.942C1193.84+454.942+1163.66+450.887+1164.07+406.6C1164.48+362.313+1181.7+330.542+1194.98+330.664Z" fill="#ffffff" stroke-linecap="round" opacity="1" stroke-linejoin="round" stroke-dasharray="0,0,0,3"/>
<path stroke="#796177" stroke-width="12" d="M1192.89+518.848C1192.89+518.848+1187.89+428.528+1154.12+372.813C1136.76+344.163+1111.79+324.664+1075.98+331.301C1068.17+332.748+1061.77+359.706+1088.6+424.766C1104.62+463.622+1124.97+486.428+1143.29+499.814C1169.13+518.689+1190.94+518.835+1190.94+518.835" fill="#ffffff" stroke-linecap="round" opacity="1" stroke-linejoin="round" stroke-dasharray="0,0,0,3"/>
<path stroke="#796177" stroke-width="12" d="M1192.89+518.848C1192.89+518.848+1207.14+311.93+1312.32+332.891C1320.1+334.442+1326.14+361.484+1298.44+426.178C1258.57+519.29+1194.84+518.861+1194.84+518.861" fill="#ffffff" stroke-linecap="round" opacity="1" stroke-linejoin="round" stroke-dasharray="0,0,0,3"/>
<path stroke="#796177" stroke-width="12" d="M1189.92+426.437C1203.2+426.559+1217.77+459.31+1217.35+504.284C1216.94+549.257+1188.77+550.715+1188.77+550.715C1188.77+550.715+1158.6+546.66+1159+502.373C1159.41+458.086+1176.63+426.314+1189.92+426.437Z" fill="#ffffff" stroke-linecap="round" opacity="1" stroke-linejoin="round" stroke-dasharray="0,0,0,3"/>
<path stroke="#796177" stroke-width="12" d="M1187.82+614.621C1187.82+614.621+1182.82+524.301+1149.05+468.586C1131.69+439.936+1106.72+420.437+1070.91+427.074C1063.1+428.521+1056.71+455.479+1083.53+520.539C1099.56+559.394+1119.9+582.201+1138.22+595.587C1164.06+614.461+1185.87+614.608+1185.87+614.608" fill="#ffffff" stroke-linecap="round" opacity="1" stroke-linejoin="round" stroke-dasharray="0,0,0,3"/>
<path stroke="#796177" stroke-width="12" d="M1187.82+614.621C1187.82+614.621+1202.08+407.703+1307.25+428.664C1315.04+430.215+1321.07+457.257+1293.37+521.951C1253.5+615.063+1189.78+614.634+1189.78+614.634" fill="#ffffff" stroke-linecap="round" opacity="1" stroke-linejoin="round" stroke-dasharray="0,0,0,3"/>
<path stroke="#796177" stroke-width="14" d="M786.361+855.961C786.361+855.961+739.414+930.275+764.635+1042.76C789.363+1153.04+874.692+1313.21+905.114+1387.81C966.566+1538.5+991.885+1618.95+991.885+1618.95L1011.44+1672.72" fill="none" stroke-linecap="round" opacity="1" stroke-linejoin="round" stroke-dasharray="0,0,0,3"/>
<path stroke="#796177" stroke-width="12" d="M1187.59+512.07C1200.88+512.192+1215.44+544.943+1215.03+589.917C1214.61+634.89+1186.45+636.348+1186.45+636.348C1186.45+636.348+1156.27+632.293+1156.68+588.006C1157.09+543.719+1174.3+511.947+1187.59+512.07Z" fill="#ffffff" stroke-linecap="round" opacity="1" stroke-linejoin="round" stroke-dasharray="0,0,0,3"/>
<path stroke="#796177" stroke-width="12" d="M1185.5+700.254C1185.5+700.254+1180.5+609.934+1146.73+554.219C1129.37+525.569+1104.39+506.07+1068.59+512.707C1060.78+514.153+1054.38+541.112+1081.21+606.172C1097.23+645.027+1117.58+667.834+1135.9+681.22C1161.74+700.094+1183.55+700.241+1183.55+700.241" fill="#ffffff" stroke-linecap="round" opacity="1" stroke-linejoin="round" stroke-dasharray="0,0,0,3"/>
<path stroke="#796177" stroke-width="12" d="M1185.5+700.254C1185.5+700.254+1199.75+493.336+1304.93+514.296C1312.71+515.848+1318.75+542.89+1291.05+607.584C1251.18+700.696+1187.45+700.267+1187.45+700.267" fill="#ffffff" stroke-linecap="round" opacity="1" stroke-linejoin="round" stroke-dasharray="0,0,0,3"/>
<path stroke="#796177" stroke-width="12" d="M1182.53+610.843C1195.81+610.965+1210.38+643.716+1209.96+688.69C1209.55+733.663+1181.38+735.12+1181.38+735.12C1181.38+735.12+1151.2+731.066+1151.61+686.779C1152.02+642.492+1169.24+610.72+1182.53+610.843Z" fill="#ffffff" stroke-linecap="round" opacity="1" stroke-linejoin="round" stroke-dasharray="0,0,0,3"/>
<path stroke="#796177" stroke-width="12" d="M1182.43+786.027C1182.43+786.027+1177.43+695.706+1143.66+639.991C1126.3+611.342+1101.33+591.843+1065.52+598.48C1057.71+599.926+1051.32+626.885+1078.14+691.945C1094.16+730.8+1114.51+753.607+1132.83+766.993C1158.67+785.867+1180.48+786.014+1180.48+786.014" fill="#ffffff" stroke-linecap="round" opacity="1" stroke-linejoin="round" stroke-dasharray="0,0,0,3"/>
<path stroke="#796177" stroke-width="11" d="M1076.16+1034.45C1076.16+1034.45+1104.38+948.505+1093.2+884.321C1087.46+851.317+1071.29+824.066+1035.53+817.215C1027.73+815.721+1011.96+838.502+1013.27+908.865C1014.05+950.886+1024.7+979.533+1036.89+998.67C1054.08+1025.65+1074.35+1033.73+1074.35+1033.73" fill="#ffffff" stroke-linecap="round" opacity="1" stroke-linejoin="round" stroke-dasharray="0,0,0,3"/>
<path stroke="#796177" stroke-width="11" d="M764.144+1058.28C751.781+1063.16+749.913+1098.95+766.406+1140.79C782.899+1182.63+809.72+1173.91+809.72+1173.91C809.72+1173.91+836.443+1159.31+820.201+1118.11C803.96+1076.91+776.506+1053.41+764.144+1058.28Z" fill="#ffffff" stroke-linecap="round" opacity="1" stroke-linejoin="round" stroke-dasharray="0,0,0,3"/>
<path stroke="#796177" stroke-width="12" d="M1182.43+787.027C1182.43+787.027+1196.68+580.109+1301.86+601.069C1309.64+602.621+1315.68+629.663+1287.98+694.356C1248.11+787.469+1184.38+787.04+1184.38+787.04" fill="#ffffff" stroke-linecap="round" opacity="1" stroke-linejoin="round" stroke-dasharray="0,0,0,3"/>
<path stroke="#796177" stroke-width="11" d="M1081.35+1035.83C1081.35+1035.83+1215.76+878.248+1287.9+957.602C1293.24+963.475+1282.02+988.811+1221.3+1024.39C1133.91+1075.59+1081.35+1035.83+1081.35+1035.83" fill="#ffffff" stroke-linecap="round" opacity="1" stroke-linejoin="round" stroke-dasharray="0,0,0,3"/>
<path stroke="#796177" stroke-width="11" d="M833.492+1233.24C833.492+1233.24+805.815+1147.11+817.39+1083C823.343+1050.03+839.674+1022.89+875.485+1016.26C883.291+1014.81+898.918+1037.69+897.171+1108.04C896.127+1150.06+885.298+1178.64+872.984+1197.7C855.622+1224.58+835.308+1232.52+835.308+1232.52" fill="#ffffff" stroke-linecap="round" opacity="1" stroke-linejoin="round" stroke-dasharray="0,0,0,3"/>
<path stroke="#796177" stroke-width="11" d="M833.492+1233.24C833.492+1233.24+746.082+1045.15+655.39+1102.38C648.677+1106.62+652.727+1134.03+701.759+1184.51C772.328+1257.17+831.675+1233.95+831.675+1233.95" fill="#ffffff" stroke-linecap="round" opacity="1" stroke-linejoin="round" stroke-dasharray="0,0,0,3"/>
<path stroke="#796177" stroke-width="11" d="M796.051+1125.25C783.688+1130.12+781.82+1165.92+798.313+1207.76C814.806+1249.6+841.627+1240.87+841.627+1240.87C841.627+1240.87+868.35+1226.28+852.108+1185.08C835.867+1143.87+808.413+1120.38+796.051+1125.25Z" fill="#ffffff" stroke-linecap="round" opacity="1" stroke-linejoin="round" stroke-dasharray="0,0,0,3"/>
<path stroke="#796177" stroke-width="11" d="M796.051+1125.25C783.688+1130.12+781.82+1165.92+798.313+1207.76C814.806+1249.6+841.627+1240.87+841.627+1240.87C841.627+1240.87+868.35+1226.28+852.108+1185.08C835.867+1143.87+808.413+1120.38+796.051+1125.25Z" fill="#ffffff" stroke-linecap="round" opacity="1" stroke-linejoin="round" stroke-dasharray="0,0,0,3"/>
<path stroke="#796177" stroke-width="11" d="M1220.96+1125.25C1233.32+1130.12+1235.19+1165.92+1218.7+1207.76C1202.21+1249.6+1175.39+1240.87+1175.39+1240.87C1175.39+1240.87+1148.66+1226.28+1164.9+1185.08C1181.14+1143.87+1208.6+1120.38+1220.96+1125.25Z" fill="#ffffff" stroke-linecap="round" opacity="1" stroke-linejoin="round" stroke-dasharray="0,0,0,3"/>
<path stroke="#796177" stroke-width="12" d="M900.177+589.16C912.54+594.033+914.408+629.827+897.915+671.669C881.422+713.511+854.601+704.785+854.601+704.785C854.601+704.785+827.878+690.192+844.12+648.988C860.361+607.785+887.815+584.287+900.177+589.16Z" fill="#ffffff" stroke-linecap="round" opacity="1" stroke-linejoin="round" stroke-dasharray="0,0,0,3"/>
<path stroke="#796177" stroke-width="11" d="M865.399+1300.2C865.399+1300.2+837.722+1214.08+849.298+1149.97C855.25+1117+871.582+1089.85+907.392+1083.22C915.198+1081.78+930.825+1104.66+929.078+1175.01C928.034+1217.03+917.205+1245.61+904.892+1264.67C887.53+1291.54+867.216+1299.49+867.216+1299.49" fill="#ffffff" stroke-linecap="round" opacity="1" stroke-linejoin="round" stroke-dasharray="0,0,0,3"/>
<path stroke="#796177" stroke-width="11" d="M865.399+1300.2C865.399+1300.2+837.722+1214.08+849.298+1149.97C855.25+1117+871.582+1089.85+907.392+1083.22C915.198+1081.78+930.825+1104.66+929.078+1175.01C928.034+1217.03+917.205+1245.61+904.892+1264.67C887.53+1291.54+867.216+1299.49+867.216+1299.49" fill="#ffffff" stroke-linecap="round" opacity="1" stroke-linejoin="round" stroke-dasharray="0,0,0,3"/>
<path stroke="#796177" stroke-width="11" d="M1151.61+1300.2C1151.61+1300.2+1179.29+1214.08+1167.71+1149.97C1161.76+1117+1145.43+1089.85+1109.62+1083.22C1101.81+1081.78+1086.19+1104.66+1087.93+1175.01C1088.98+1217.03+1099.81+1245.61+1112.12+1264.67C1129.48+1291.54+1149.8+1299.49+1149.8+1299.49" fill="#ffffff" stroke-linecap="round" opacity="1" stroke-linejoin="round" stroke-dasharray="0,0,0,3"/>
<path stroke="#796177" stroke-width="12" d="M830.829+764.113C830.829+764.113+858.506+677.992+846.93+613.879C840.978+580.911+824.646+553.762+788.836+547.135C781.03+545.69+765.403+568.57+767.15+638.922C768.194+680.938+779.023+709.518+791.336+728.578C808.698+755.453+829.012+763.402+829.012+763.402" fill="#ffffff" stroke-linecap="round" opacity="1" stroke-linejoin="round" stroke-dasharray="0,0,0,3"/>
<path stroke="#796177" stroke-width="11" d="M865.399+1300.2C865.399+1300.2+777.989+1112.11+687.297+1169.35C680.584+1173.58+684.635+1200.99+733.666+1251.48C804.235+1324.14+863.582+1300.91+863.582+1300.91" fill="#ffffff" stroke-linecap="round" opacity="1" stroke-linejoin="round" stroke-dasharray="0,0,0,3"/>
<path stroke="#796177" stroke-width="11" d="M865.399+1300.2C865.399+1300.2+777.989+1112.11+687.297+1169.35C680.584+1173.58+684.635+1200.99+733.666+1251.48C804.235+1324.14+863.582+1300.91+863.582+1300.91" fill="#ffffff" stroke-linecap="round" opacity="1" stroke-linejoin="round" stroke-dasharray="0,0,0,3"/>
<path stroke="#796177" stroke-width="11" d="M1151.61+1300.2C1151.61+1300.2+1239.02+1112.11+1329.72+1169.35C1336.43+1173.58+1332.38+1200.99+1283.35+1251.48C1212.78+1324.14+1153.43+1300.91+1153.43+1300.91" fill="#ffffff" stroke-linecap="round" opacity="1" stroke-linejoin="round" stroke-dasharray="0,0,0,3"/>
<path stroke="#796177" stroke-width="12" d="M830.829+764.113C830.829+764.113+918.239+576.023+1008.93+633.259C1015.64+637.496+1011.59+664.905+962.562+715.388C891.993+788.046+832.646+764.824+832.646+764.824" fill="#ffffff" stroke-linecap="round" opacity="1" stroke-linejoin="round" stroke-dasharray="0,0,0,3"/>
<path stroke="#796177" stroke-width="11" d="M835.08+1212.85C822.718+1217.73+820.85+1253.52+837.343+1295.36C853.836+1337.21+880.657+1328.48+880.657+1328.48C880.657+1328.48+907.379+1313.89+891.138+1272.68C874.897+1231.48+847.443+1207.98+835.08+1212.85Z" fill="#ffffff" stroke-linecap="round" opacity="1" stroke-linejoin="round" stroke-dasharray="0,0,0,3"/>
<path stroke="#796177" stroke-width="11" d="M1181.93+1212.85C1194.29+1217.73+1196.16+1253.52+1179.67+1295.36C1163.18+1337.21+1136.36+1328.48+1136.36+1328.48C1136.36+1328.48+1109.63+1313.89+1125.87+1272.68C1142.12+1231.48+1169.57+1207.98+1181.93+1212.85Z" fill="#ffffff" stroke-linecap="round" opacity="1" stroke-linejoin="round" stroke-dasharray="0,0,0,3"/>
<path stroke="#796177" stroke-width="12" d="M861.148+676.766C873.51+681.639+875.378+717.433+858.885+759.275C842.392+801.117+815.571+792.39+815.571+792.39C815.571+792.39+788.849+777.798+805.09+736.594C821.331+695.391+848.785+671.893+861.148+676.766Z" fill="#ffffff" stroke-linecap="round" opacity="1" stroke-linejoin="round" stroke-dasharray="0,0,0,3"/>
<path stroke="#796177" stroke-width="11" d="M904.428+1387.81C904.428+1387.81+876.752+1301.69+888.327+1237.57C894.28+1204.61+910.611+1177.46+946.422+1170.83C954.228+1169.38+969.855+1192.26+968.107+1262.62C967.064+1304.63+956.235+1333.21+943.921+1352.27C926.559+1379.15+906.245+1387.1+906.245+1387.1" fill="#ffffff" stroke-linecap="round" opacity="1" stroke-linejoin="round" stroke-dasharray="0,0,0,3"/>
<path stroke="#796177" stroke-width="11" d="M1112.58+1387.81C1112.58+1387.81+1140.26+1301.69+1128.68+1237.57C1122.73+1204.61+1106.4+1177.46+1070.59+1170.83C1062.78+1169.38+1047.16+1192.26+1048.9+1262.62C1049.95+1304.63+1060.78+1333.21+1073.09+1352.27C1090.45+1379.15+1110.77+1387.1+1110.77+1387.1" fill="#ffffff" stroke-linecap="round" opacity="1" stroke-linejoin="round" stroke-dasharray="0,0,0,3"/>
<path stroke="#796177" stroke-width="12" d="M791.8+851.719C791.8+851.719+819.476+765.598+807.901+701.485C801.948+668.517+785.617+641.368+749.806+634.741C742+633.296+726.373+656.176+728.121+726.528C729.164+768.544+739.993+797.124+752.307+816.184C769.669+843.059+789.983+851.008+789.983+851.008" fill="#ffffff" stroke-linecap="round" opacity="1" stroke-linejoin="round" stroke-dasharray="0,0,0,3"/>
<path stroke="#796177" stroke-width="11" d="M904.428+1387.81C904.428+1387.81+817.019+1199.72+726.327+1256.95C719.614+1261.19+723.664+1288.6+772.695+1339.08C843.265+1411.74+902.612+1388.52+902.612+1388.52" fill="#ffffff" stroke-linecap="round" opacity="1" stroke-linejoin="round" stroke-dasharray="0,0,0,3"/>
<path stroke="#796177" stroke-width="11" d="M1112.58+1387.81C1112.58+1387.81+1199.99+1199.72+1290.69+1256.95C1297.4+1261.19+1293.35+1288.6+1244.32+1339.08C1173.75+1411.74+1114.4+1388.52+1114.4+1388.52" fill="#ffffff" stroke-linecap="round" opacity="1" stroke-linejoin="round" stroke-dasharray="0,0,0,3"/>
<path stroke="#796177" stroke-width="12" d="M791.8+851.719C791.8+851.719+879.209+663.629+969.901+720.865C976.614+725.102+972.564+752.511+923.533+802.994C852.963+875.652+793.616+852.43+793.616+852.43" fill="#ffffff" stroke-linecap="round" opacity="1" stroke-linejoin="round" stroke-dasharray="0,0,0,3"/>
<path stroke="#796177" stroke-width="11" d="M992.878+1620.56C992.878+1620.56+908.258+1431.19+816.73+1487.08C809.955+1491.22+813.6+1518.69+861.88+1569.89C931.368+1643.58+991.051+1621.24+991.051+1621.24" fill="#ffffff" stroke-linecap="round" opacity="1" stroke-linejoin="round" stroke-dasharray="0,0,0,3"/>
<path stroke="#796177" stroke-width="11" d="M1018.36+1648.55C1018.36+1648.55+1102.98+1459.19+1194.51+1515.08C1201.28+1519.21+1197.64+1546.68+1149.36+1597.88C1115.72+1633.56+1084.38+1646.73+1060.99+1650.82C1036.07+1655.18+1020.19+1649.23+1020.19+1649.23" fill="#ffffff" stroke-linecap="round" opacity="1" stroke-linejoin="round" stroke-dasharray="0,0,0,3"/>
<path stroke="#796177" stroke-width="11" d="M905.114+1386.74L934.184+1460.69C934.184+1460.69+976.125+1570.98+991.885+1618.95C1021.64+1709.51+1016.07+1716.48+1024.13+1748.99" fill="none" stroke-linecap="round" opacity="1" stroke-linejoin="round" stroke-dasharray="0,0,0,3"/>
<path stroke="#796177" stroke-width="14" d="M1111.9+1386.74C1111.9+1386.74+1011.44+1527.48+1011.44+1624.42C1011.44+1721.36+1024.13+1748.99+1024.13+1748.99" fill="none" stroke-linecap="round" opacity="1" stroke-linejoin="round" stroke-dasharray="0,0,0,3"/>
<path stroke="#796177" stroke-width="11" d="M1151.44+1271.43C1163.8+1276.3+1165.67+1312.09+1149.17+1353.94C1132.68+1395.78+1105.86+1387.05+1105.86+1387.05C1105.86+1387.05+1079.14+1372.46+1095.38+1331.26C1111.62+1290.05+1139.07+1266.55+1151.44+1271.43Z" fill="#ffffff" stroke-linecap="round" opacity="1" stroke-linejoin="round" stroke-dasharray="0,0,0,3"/>
<path stroke="#796177" stroke-width="11" d="M992.879+1620.55C992.879+1620.55+966.477+1534.03+978.999+1470.1C985.438+1437.22+1002.17+1410.32+1038.07+1404.22C1045.9+1402.89+1061.19+1426+1058.4+1496.32C1056.74+1538.31+1045.49+1566.73+1032.89+1585.61C1015.14+1612.22+994.706+1619.87+994.706+1619.87" fill="#ffffff" stroke-linecap="round" opacity="1" stroke-linejoin="round" stroke-dasharray="0,0,0,3"/>
<path stroke="#796177" stroke-width="11" d="M830.652+735.338C843.015+740.211+844.883+776.005+828.39+817.847C811.897+859.69+785.076+850.963+785.076+850.963C785.076+850.963+758.353+836.37+774.595+795.167C790.836+753.963+818.29+730.465+830.652+735.338Z" fill="#ffffff" stroke-linecap="round" opacity="1" stroke-linejoin="round" stroke-dasharray="0,0,0,3"/>
</g>
<g id="Ç1" vectornator:layerName="Ç1" visibility="hidden">
<path stroke="#000000" stroke-width="12" d="M984.686+138.371C1209.76+136.155+1435.38+225.209+1597.39+381.539C1759.4+537.87+1855.73+759.631+1858.01+984.709C1860.3+1209.79+1768.41+1435.42+1607.09+1597.43C1445.78+1759.44+1216.94+1855.77+984.686+1858.06C752.429+1860.34+519.607+1768.45+352.427+1607.13C185.247+1445.81+85.8458+1216.97+83.4865+984.709C81.1271+752.447+175.953+519.619+342.417+352.435C508.881+185.251+745.017+85.8473+984.686+83.4879C1224.35+81.1286+1464.61+175.957+1637.12+342.425C1809.64+508.893+1912.21+745.035+1914.65+984.709C1917.08+1224.38+1819.23+1464.64+1647.45+1637.16C1475.68+1809.68+1232+1912.26+984.686+1914.69C737.368+1917.13+489.448+1819.27+311.426+1647.49C133.405+1475.71+27.5582+1232.03+25.0458+984.71C22.5334+737.386+123.508+489.459+300.767+311.433C478.026+133.407+729.475+27.5581+984.686+25.0458C1239.9+22.5335+1495.73+123.511+1679.43+300.774C1863.14+478.037+1972.36+729.492+1974.95+984.709C1977.55+1239.93+1873.35+1495.77+1690.43+1679.47C1507.52+1863.18+1248.04+1972.41+984.686+1975" fill="none" stroke-linecap="round" opacity="1" stroke-linejoin="round" stroke-dasharray="0,0,0,3"/>
<path stroke="#796177" stroke-width="12" d="M984.686+138.371C1209.76+136.155+1435.38+225.209+1597.39+381.539C1759.4+537.87+1855.73+759.631+1858.01+984.709C1860.3+1209.79+1768.41+1435.42+1607.09+1597.43C1445.78+1759.44+1216.94+1855.77+984.686+1858.06C752.429+1860.34+519.607+1768.45+352.427+1607.13C185.247+1445.81+85.8458+1216.97+83.4865+984.709C81.1271+752.447+175.953+519.619+342.417+352.435C508.881+185.251+745.017+85.8473+984.686+83.4879C1224.35+81.1286+1464.61+175.957+1637.12+342.425C1809.64+508.893+1912.21+745.035+1914.65+984.709C1917.08+1224.38+1819.23+1464.64+1647.45+1637.16C1475.68+1809.68+1232+1912.26+984.686+1914.69C737.368+1917.13+489.448+1819.27+311.426+1647.49C133.405+1475.71+27.5582+1232.03+25.0458+984.71C22.5334+737.386+123.508+489.459+300.767+311.433C478.026+133.407+729.475+27.5581+984.686+25.0458C1239.9+22.5335+1495.73+123.511+1679.43+300.774C1863.14+478.037+1972.36+729.492+1974.95+984.709C1977.55+1239.93+1873.35+1495.77+1690.43+1679.47C1507.52+1863.18+1248.04+1972.41+984.686+1975" fill="none" stroke-linecap="round" opacity="1" stroke-linejoin="round" stroke-dasharray="0,0,0,3"/>
</g>
<g id="Ç2" vectornator:layerName="Ç2" visibility="hidden">
<path stroke="#009ddc" stroke-width="4.5" d="M100+1000C100+502.944+502.944+100+1000+100C1497.06+100+1900+502.944+1900+1000C1900+1497.06+1497.06+1900+1000+1900C502.944+1900+100+1497.06+100+1000Z" fill="none" stroke-linecap="round" opacity="1" stroke-linejoin="round" stroke-dasharray="0,0,0,3"/>
<path stroke="#f26430" stroke-width="5.5" d="M80+1000C80+491.898+491.898+80+1000+80C1508.1+80+1920+491.898+1920+1000C1920+1508.1+1508.1+1920+1000+1920C491.898+1920+80+1508.1+80+1000Z" fill="none" stroke-linecap="round" opacity="1" stroke-linejoin="round" stroke-dasharray="0,0,0,3"/>
<path stroke="#009b72" stroke-width="6.5" d="M60+1000C60+480.852+480.852+60+1000+60C1519.15+60+1940+480.852+1940+1000C1940+1519.15+1519.15+1940+1000+1940C480.852+1940+60+1519.15+60+1000Z" fill="none" stroke-linecap="round" opacity="1" stroke-linejoin="round" stroke-dasharray="0,0,0,3"/>
</g>
<g id="Ç3" vectornator:layerName="Ç3" visibility="hidden">
<path stroke="#796177" stroke-width="12" d="M25+1000C25+461.522+461.522+25+1000+25C1538.48+25+1975+461.522+1975+1000C1975+1538.48+1538.48+1975+1000+1975C461.522+1975+25+1538.48+25+1000Z" fill="none" stroke-linecap="round" opacity="1" stroke-linejoin="round" stroke-dasharray="0,0,0,3"/>
</g>
<g id="Ç4" vectornator:layerName="Ç4">
<path d="M1018+82C764.893+82+536.242+186.532+372.719+354.719C534.82+197.112+756.051+100+1000+100C1497.06+100+1900+502.944+1900+1000C1900+1243.95+1802.89+1465.18+1645.28+1627.28C1813.47+1463.76+1918+1235.11+1918+982C1918+484.944+1515.06+82+1018+82Z" opacity="1" fill="#f26430"/>
<path d="M349.781+377.781C178.615+541.621+72+772.349+72+1028C72.0001+1525.06+474.944+1928+972+1928C1227.65+1928+1458.38+1821.39+1622.22+1650.22C1460.59+1804.93+1241.41+1900+1000+1900C502.944+1900+100+1497.06+100+1000C100+758.594+195.071+539.41+349.781+377.781Z" opacity="1" fill="#009ddc"/>
</g>
<g id="Ç4 Alt" vectornator:layerName="Ç4 Alt" visibility="hidden">
<path d="M92+1048C92+550.944+494.944+148+992+148C1489.06+148+1892+550.944+1892+1048C1892+1545.06+1489.06+1948+992+1948C494.944+1948+92+1545.06+92+1048Z" opacity="1" fill="#827287"/>
<path stroke="#ffffff" stroke-width="0.1" d="M120+1020C120+522.944+522.944+120+1020+120C1517.06+120+1920+522.944+1920+1020C1920+1517.06+1517.06+1920+1020+1920C522.944+1920+120+1517.06+120+1020Z" fill="#ffffff" stroke-linecap="round" opacity="1" stroke-linejoin="round" stroke-dasharray="0,0,0,3"/>
</g>
<g id="Ç4 Üst" vectornator:layerName="Ç4 Üst" visibility="hidden">
<path d="M118+982C118+484.944+520.944+82+1018+82C1515.06+82+1918+484.944+1918+982C1918+1479.06+1515.06+1882+1018+1882C520.944+1882+118+1479.06+118+982Z" opacity="1" fill="#d2e7c7"/>
<path stroke="#ffffff" stroke-width="0.1" d="M100+1000C100+502.944+502.944+100+1000+100C1497.06+100+1900+502.944+1900+1000C1900+1497.06+1497.06+1900+1000+1900C502.944+1900+100+1497.06+100+1000Z" fill="#ffffff" stroke-linecap="round" opacity="1" stroke-linejoin="round" stroke-dasharray="0,0,0,3"/>
</g>
</svg>
