<?xml version="1.0" standalone="no"?>
<!DOCTYPE svg PUBLIC "-//W3C//DTD SVG 20010904//EN"
 "http://www.w3.org/TR/2001/REC-SVG-20010904/DTD/svg10.dtd">
<svg version="1.0" xmlns="http://www.w3.org/2000/svg"
 width="1000.000000pt" height="1000.000000pt" viewBox="0 0 1000.000000 1000.000000"
 preserveAspectRatio="xMidYMid meet">
<metadata>
Created by potrace 1.14, written by Peter Selinger 2001-2017
</metadata>
<g transform="translate(0.000000,1000.000000) scale(0.100000,-0.100000)"
fill="#000000" stroke="none">
<path d="M5691 9988 c-57 -21 -75 -57 -80 -154 -5 -122 11 -201 80 -405 16
-47 29 -89 29 -92 0 -4 -9 -7 -20 -7 -40 0 -89 -28 -107 -62 -14 -26 -18 -55
-17 -133 0 -102 20 -202 64 -329 11 -33 20 -62 20 -67 0 -4 -13 -12 -29 -17
-56 -20 -66 -51 -65 -197 1 -119 4 -140 36 -245 20 -63 39 -123 43 -132 5 -14
2 -18 -15 -18 -36 0 -76 -50 -90 -112 -18 -82 8 -241 72 -433 117 -353 285
-600 500 -738 88 -56 119 -70 211 -96 l59 -16 -7 -50 c-16 -126 -83 -426 -124
-560 -67 -217 -225 -551 -375 -795 -93 -150 -98 -156 -81 -94 44 165 72 355
81 554 17 363 -78 616 -279 744 -42 26 -154 66 -185 66 -75 -1 -146 -136 -174
-329 -18 -122 -15 -494 5 -596 43 -229 140 -432 258 -541 45 -41 135 -111 151
-116 7 -3 -14 -43 -55 -106 -37 -56 -67 -104 -67 -108 0 -3 -8 -18 -18 -32
-51 -75 -135 -286 -190 -477 -49 -167 -109 -531 -137 -820 -8 -88 -17 -181
-20 -206 -10 -99 -24 -332 -30 -504 -13 -431 -13 -433 -45 -476 l-28 -39 -12
87 c-6 49 -15 111 -20 138 -6 28 -19 129 -30 225 -12 96 -23 184 -25 195 -2
11 -7 49 -10 85 -3 36 -8 88 -11 116 -3 27 -1 68 5 91 25 92 36 423 19 571
-10 84 -44 225 -64 264 -13 26 -15 53 -10 162 3 72 9 210 12 306 4 96 8 189
10 205 9 99 19 393 19 595 0 211 -2 239 -18 263 -32 49 -73 48 -122 0 -32 -32
-42 -56 -62 -138 -17 -74 -60 -633 -59 -772 1 -57 -2 -103 -6 -103 -5 0 -8 8
-8 18 0 31 -57 138 -85 160 -16 13 -42 22 -61 22 -20 0 -35 5 -35 13 -1 6 -3
30 -5 52 -20 247 -93 405 -186 405 -88 0 -243 -91 -321 -189 -37 -46 -88 -162
-109 -248 l-22 -89 -57 70 c-64 81 -90 105 -151 139 -41 22 -44 27 -59 93 -38
164 -50 272 -51 445 0 132 8 263 21 323 5 22 15 68 21 101 17 87 73 251 115
338 l36 75 40 -9 c118 -27 298 -9 431 42 175 68 319 168 488 342 118 122 181
199 245 301 93 150 114 237 74 303 l-22 35 40 41 c159 170 262 340 271 454 4
60 3 63 -28 91 -17 16 -64 42 -103 58 -63 26 -84 29 -177 29 -86 0 -116 -4
-170 -24 -58 -22 -157 -75 -216 -117 l-21 -15 5 118 c5 140 -6 190 -53 241
-30 33 -39 37 -82 36 -38 0 -60 -8 -103 -36 -55 -35 -131 -109 -164 -161 -20
-29 -36 -28 -36 3 0 11 -11 54 -25 97 -66 202 -190 328 -373 379 -58 16 -62
16 -94 -3 -39 -23 -91 -117 -113 -208 -18 -77 -35 -233 -35 -329 l0 -74 -60 5
c-57 6 -61 5 -90 -27 -17 -18 -40 -52 -50 -76 -24 -51 -55 -185 -65 -274 -8
-79 -8 -360 0 -444 16 -150 72 -336 139 -455 51 -90 88 -136 175 -218 l76 -71
-31 -64 c-41 -82 -68 -153 -98 -258 -88 -296 -95 -679 -20 -1009 14 -61 13
-65 -5 -85 -50 -53 -68 -182 -47 -331 4 -27 3 -45 -1 -40 -11 14 -62 49 -122
84 -149 88 -309 108 -451 56 -41 -15 -90 -38 -108 -52 -30 -23 -32 -27 -32
-88 0 -56 5 -75 43 -147 36 -71 145 -232 167 -248 4 -3 9 -38 12 -78 8 -108
64 -209 222 -401 83 -100 96 -121 77 -121 -17 0 -34 -61 -29 -105 21 -178 354
-576 633 -756 165 -107 343 -156 530 -146 l111 5 27 -66 c68 -172 79 -200 97
-242 30 -72 126 -320 145 -375 9 -27 23 -63 30 -80 16 -34 104 -270 112 -300
3 -13 -2 -10 -16 10 -152 221 -341 399 -502 475 -147 68 -281 76 -410 24 -121
-49 -144 -84 -119 -182 20 -82 110 -240 192 -339 207 -247 344 -364 533 -458
151 -74 252 -98 403 -94 l115 4 24 -64 c26 -70 41 -134 78 -341 14 -74 34
-184 45 -244 12 -60 19 -113 18 -117 -7 -19 -564 327 -763 474 -318 234 -487
367 -665 525 -97 86 -365 354 -410 410 -19 24 -45 56 -58 70 -42 48 -208 304
-274 422 -81 146 -137 262 -252 525 -71 160 -228 569 -336 875 -23 63 -57 160
-76 214 -39 109 -99 310 -119 396 -45 196 -56 247 -74 351 -24 133 -57 386
-66 504 -3 44 -9 107 -12 140 -3 33 -6 312 -7 620 -1 554 -1 560 -23 608 -24
52 -58 72 -105 62 -89 -20 -174 -254 -210 -575 -19 -172 -16 -773 5 -970 61
-568 159 -1016 339 -1555 80 -241 190 -502 336 -795 58 -118 114 -226 123
-240 9 -14 32 -54 51 -90 68 -127 277 -465 378 -608 294 -419 532 -679 782
-855 401 -282 822 -481 1254 -591 55 -14 114 -28 130 -30 118 -16 145 -17 199
-7 153 30 337 95 525 184 81 38 312 192 380 253 14 12 72 61 130 108 143 118
143 118 244 210 115 104 121 110 186 187 30 35 58 66 61 69 22 18 178 267 230
365 14 28 53 100 86 160 58 104 246 485 310 625 29 64 84 187 109 245 7 17 22
53 34 80 38 90 207 517 250 635 23 63 48 129 55 145 8 17 17 41 20 55 4 14 13
39 20 55 33 76 117 335 146 451 41 162 47 306 14 340 -99 104 -217 5 -353
-296 -59 -129 -71 -158 -152 -350 -81 -191 -108 -259 -175 -430 -67 -172 -286
-725 -300 -755 -8 -16 -26 -59 -40 -95 -163 -396 -478 -953 -665 -1175 -52
-63 -220 -234 -304 -310 -107 -99 -509 -412 -675 -526 -35 -24 -84 -58 -110
-76 l-46 -32 -13 47 c-23 86 -44 255 -57 446 l-6 88 28 -7 c44 -12 202 -14
267 -4 143 23 334 113 477 225 111 88 370 380 425 480 70 125 95 202 86 262
-5 39 -42 69 -127 103 -51 20 -77 24 -175 24 -124 0 -144 -5 -265 -67 -210
-108 -452 -389 -666 -773 l-44 -80 -3 73 c-3 68 -1 74 25 101 97 98 170 216
216 351 43 125 65 250 74 415 6 131 10 147 63 235 5 8 33 58 63 110 80 141 82
145 88 150 3 3 29 43 57 90 78 126 83 131 123 120 84 -24 301 -2 413 41 175
70 311 163 476 329 69 69 132 135 140 146 8 12 40 55 71 96 31 40 75 112 98
159 35 70 43 96 43 143 1 46 -4 62 -20 78 l-21 21 52 61 c29 34 55 63 58 66
13 11 96 129 124 175 71 117 98 211 76 267 -23 60 -229 127 -351 115 -80 -9
-198 -57 -286 -116 -41 -28 -76 -51 -78 -51 -1 0 2 30 6 68 19 143 -8 277 -64
316 -38 27 -107 20 -164 -15 -51 -32 -126 -107 -166 -165 -13 -19 -25 -34 -28
-34 -3 0 -15 42 -28 93 -31 127 -74 208 -152 287 -91 92 -222 151 -300 137
-27 -6 -42 -18 -67 -55 -58 -88 -86 -214 -99 -440 l-7 -122 -48 6 c-61 8 -99
-13 -133 -75 -64 -119 -92 -318 -83 -605 5 -158 10 -208 31 -291 60 -239 120
-351 272 -503 l93 -94 -67 -101 c-37 -56 -72 -111 -78 -122 -21 -40 -69 -121
-90 -151 l-21 -32 -17 92 c-24 118 -63 205 -110 241 l-36 28 -63 -17 c-34 -10
-84 -29 -111 -43 l-49 -25 7 244 c4 133 9 257 11 273 2 17 6 80 10 140 3 61 8
126 10 145 2 19 11 112 20 206 8 93 17 179 19 190 2 10 7 42 10 69 13 96 17
120 27 190 6 39 14 84 19 100 5 17 12 50 15 75 4 25 11 63 16 85 5 22 11 49
13 60 10 52 48 181 57 190 5 5 9 16 9 25 0 36 110 266 200 419 22 37 91 131
96 131 3 0 21 -8 42 -19 125 -62 377 -75 552 -28 119 32 161 47 269 100 256
123 516 331 576 459 37 78 34 94 -30 154 -71 67 -132 101 -224 125 -94 24
-139 24 -249 -1 -186 -41 -364 -135 -574 -303 -54 -42 -98 -74 -98 -69 0 4 4
12 9 17 17 17 152 286 188 375 19 47 39 89 44 95 5 5 9 15 9 23 0 8 7 28 14
45 8 18 24 61 36 97 11 36 24 72 27 80 3 8 7 20 9 25 1 6 14 57 28 115 26 102
81 376 88 434 3 28 8 31 75 47 253 62 483 278 632 591 153 323 211 604 151
731 -7 15 -16 27 -19 27 -3 0 -12 4 -20 9 -11 7 -7 28 19 112 17 57 36 115 41
128 6 13 15 72 21 130 13 125 2 178 -44 224 l-30 30 31 93 c44 131 61 223 60
317 -1 101 -16 146 -55 166 l-30 15 33 91 c101 275 118 500 41 558 -54 40
-235 33 -337 -15 -94 -42 -190 -127 -257 -224 -21 -30 -41 -51 -44 -47 -4 5
-13 35 -20 68 -21 101 -86 212 -141 241 -102 52 -208 -38 -274 -236 -11 -30
-22 -59 -25 -63 -4 -4 -24 18 -44 49 -70 105 -193 204 -298 241 -59 20 -214
27 -257 11z m-837 -7400 c14 -100 37 -259 51 -353 52 -350 56 -382 53 -526
l-3 -143 -27 75 c-15 40 -36 99 -48 129 -12 30 -35 91 -51 135 -17 44 -36 94
-43 110 -8 17 -19 48 -26 70 -7 22 -23 63 -35 90 -13 28 -42 100 -65 160 -24
61 -51 128 -60 150 -34 77 -34 76 29 121 58 42 180 174 182 197 2 40 21 -56
43 -215z"/>
</g>
</svg>
