<?xml version="1.0" encoding="UTF-8" standalone="no"?> <!-- Created with Vectornator for iOS (http://vectornator.io/) --><!DOCTYPE svg PUBLIC "-//W3C//DTD SVG 1.1//EN" "http://www.w3.org/Graphics/SVG/1.1/DTD/svg11.dtd">
<svg height="100%" style="fill-rule:nonzero;clip-rule:evenodd;stroke-linecap:round;stroke-linejoin:round;" xmlns:xlink="http://www.w3.org/1999/xlink" xmlns="http://www.w3.org/2000/svg" xml:space="preserve" width="100%" xmlns:vectornator="http://vectornator.io" version="1.1" viewBox="0 0 37 37">
<metadata>
<vectornator:setting key="DimensionsVisible" value="1"/>
<vectornator:setting key="PencilOnly" value="0"/>
<vectornator:setting key="SnapToPoints" value="0"/>
<vectornator:setting key="OutlineMode" value="0"/>
<vectornator:setting key="CMYKEnabledKey" value="0"/>
<vectornator:setting key="RulersVisible" value="1"/>
<vectornator:setting key="SnapToEdges" value="0"/>
<vectornator:setting key="GuidesVisible" value="1"/>
<vectornator:setting key="DisplayWhiteBackground" value="0"/>
<vectornator:setting key="doHistoryDisabled" value="0"/>
<vectornator:setting key="SnapToGuides" value="1"/>
<vectornator:setting key="TimeLapseWatermarkDisabled" value="0"/>
<vectornator:setting key="Units" value="Pixels"/>
<vectornator:setting key="DynamicGuides" value="0"/>
<vectornator:setting key="IsolateActiveLayer" value="0"/>
<vectornator:setting key="SnapToGrid" value="0"/>
</metadata>
<defs/>
<g id="Layer 1" vectornator:layerName="Layer 1">
<path vectornator:shadowColor="#000000" vectornator:shadowOpacity="1" vectornator:shadowRadius="10" d="M9.85+31.8L10.45+32.1C12.95+33.6+15.75+34.3+18.55+34.3L18.55+34.3C27.35+34.3+34.55+27.1+34.55+18.3C34.55+14.1+32.85+10+29.85+7C26.85+4+22.85+2.3+18.55+2.3C9.75+2.3+2.55+9.5+2.65+18.4C2.65+21.4+3.55+24.3+5.05+26.8L5.45+27.4L3.85+33.3L9.85+31.8Z" vectornator:shadowOffset="10" fill="#00e676" opacity="1" vectornator:shadowAngle="1.5708"/>
<path vectornator:shadowColor="#000000" vectornator:shadowOpacity="1" vectornator:shadowRadius="10" d="M31.55+5.4C28.15+1.9+23.45+0+18.65+0C8.45+0+0.25+8.3+0.35+18.4C0.35+21.6+1.25+24.7+2.75+27.5L0.15+37L9.85+34.5C12.55+36+15.55+36.7+18.55+36.7L18.55+36.7C28.65+36.7+36.85+28.4+36.85+18.3C36.85+13.4+34.95+8.8+31.55+5.4ZM18.65+33.6L18.65+33.6C15.95+33.6+13.25+32.9+10.95+31.5L10.35+31.2L4.55+32.7L6.05+27L5.65+26.4C1.25+19.3+3.35+9.9+10.55+5.5C17.75+1.1+27.05+3.2+31.45+10.4C35.85+17.6+33.75+26.9+26.55+31.3C24.25+32.8+21.45+33.6+18.65+33.6ZM27.45+22.5L26.35+22C26.35+22+24.75+21.3+23.75+20.8C23.65+20.8+23.55+20.7+23.45+20.7C23.15+20.7+22.95+20.8+22.75+20.9L22.75+20.9C22.75+20.9+22.65+21+21.25+22.6C21.15+22.8+20.95+22.9+20.75+22.9L20.65+22.9C20.55+22.9+20.35+22.8+20.25+22.7L19.75+22.5L19.75+22.5C18.65+22+17.65+21.4+16.85+20.6C16.65+20.4+16.35+20.2+16.15+20C15.45+19.3+14.75+18.5+14.25+17.6L14.15+17.4C14.05+17.3+14.05+17.2+13.95+17C13.95+16.8+13.95+16.6+14.05+16.5C14.05+16.5+14.45+16+14.75+15.7C14.95+15.5+15.05+15.2+15.25+15C15.45+14.7+15.55+14.3+15.45+14C15.35+13.5+14.15+10.8+13.85+10.2C13.65+9.9+13.45+9.8+13.15+9.7L12.85+9.7C12.65+9.7+12.35+9.7+12.05+9.7C11.85+9.7+11.65+9.8+11.45+9.8L11.35+9.9C11.15+10+10.95+10.2+10.75+10.3C10.55+10.5+10.45+10.7+10.25+10.9C9.55+11.8+9.15+12.9+9.15+14L9.15+14C9.15+14.8+9.35+15.6+9.65+16.3L9.75+16.6C10.65+18.5+11.85+20.2+13.45+21.7L13.85+22.1C14.15+22.4+14.45+22.6+14.65+22.9C16.75+24.7+19.15+26+21.85+26.7C22.15+26.8+22.55+26.8+22.85+26.9L22.85+26.9C23.15+26.9+23.55+26.9+23.85+26.9C24.35+26.9+24.95+26.7+25.35+26.5C25.65+26.3+25.85+26.3+26.05+26.1L26.25+25.9C26.45+25.7+26.65+25.6+26.85+25.4C27.05+25.2+27.25+25+27.35+24.8C27.55+24.4+27.65+23.9+27.75+23.4C27.75+23.2+27.75+22.9+27.75+22.7C27.75+22.7+27.65+22.6+27.45+22.5Z" vectornator:shadowOffset="10" fill="#ffffff" opacity="1" vectornator:shadowAngle="1.5708"/>
</g>
</svg>
